<svg width="24" height="24" viewBox="0 0 24 24" fill="none" xmlns="http://www.w3.org/2000/svg">
<path d="M8.50015 14.5002C9.1632 14.5002 9.79909 14.2369 10.2679 13.768C10.7368 13.2992 11.0002 12.6633 11.0002 12.0002C11.0002 10.6202 10.5002 10.0002 10.0002 9.00015C8.92815 6.85712 9.77617 4.94608 12.0002 3.00005C12.5002 5.50009 14.0002 7.90014 16.0003 9.50016C18.0003 11.1002 19.0003 13.0002 19.0003 15.0003C19.0003 15.9195 18.8193 16.8298 18.4675 17.6791C18.1157 18.5284 17.6001 19.3001 16.95 19.9501C16.3 20.6001 15.5283 21.1157 14.679 21.4675C13.8297 21.8193 12.9195 22.0004 12.0002 22.0004C11.0809 22.0004 10.1707 21.8193 9.32138 21.4675C8.47208 21.1157 7.70039 20.6001 7.05037 19.9501C6.40035 19.3001 5.88473 18.5284 5.53294 17.6791C5.18115 16.8298 5.00009 15.9195 5.00009 15.0003C5.00009 13.8472 5.43309 12.7062 6.0001 12.0002C6.0001 12.6633 6.2635 13.2992 6.73235 13.768C7.2012 14.2369 7.83709 14.5002 8.50015 14.5002Z" stroke="#0F1115" stroke-width="1.99997" stroke-linecap="round" stroke-linejoin="round"/>
</svg>
